<?xml version="1.0" standalone="no"?>
<!DOCTYPE svg PUBLIC "-//W3C//DTD SVG 20010904//EN"
 "http://www.w3.org/TR/2001/REC-SVG-20010904/DTD/svg10.dtd">
<svg version="1.0" xmlns="http://www.w3.org/2000/svg"
 width="900.000000pt" height="435.000000pt" viewBox="0 0 900.000000 435.000000"
 preserveAspectRatio="xMidYMid meet">
<metadata>
Created by potrace 1.10, written by Peter Selinger 2001-2011
</metadata>
<g transform="translate(0.000000,435.000000) scale(0.100000,-0.100000)"
fill="#000000" stroke="none">
<path d="M1261 3778 c-17 -17 -31 -40 -31 -50 0 -10 -4 -18 -9 -18 -5 0 -14
-12 -20 -27 -12 -31 -32 -65 -43 -73 -4 -3 -12 -17 -18 -30 -5 -14 -19 -38
-30 -55 -11 -16 -24 -39 -30 -50 -6 -11 -19 -33 -30 -50 -11 -16 -24 -39 -29
-50 -5 -11 -20 -36 -33 -55 -13 -19 -27 -42 -31 -50 -4 -8 -16 -28 -27 -45
-11 -16 -24 -39 -29 -50 -5 -11 -21 -37 -35 -58 -14 -21 -26 -44 -26 -52 0 -8
-5 -15 -10 -15 -6 0 -14 -10 -19 -22 -5 -13 -21 -40 -35 -61 -44 -64 -32 -76
25 -24 96 86 173 153 193 167 21 14 64 51 91 77 16 15 89 78 147 127 26 21 62
52 80 68 18 17 53 46 78 66 25 20 52 43 61 52 9 8 40 35 69 60 86 73 83 70 64
91 -9 11 -21 19 -26 19 -5 0 -27 12 -51 27 -62 41 -71 46 -124 73 -26 14 -49
28 -51 33 -8 17 -42 5 -71 -25z"/>
<path d="M1920 3753 c0 -5 -28 -30 -62 -58 -33 -27 -71 -59 -83 -70 -63 -56
-143 -124 -210 -180 -27 -22 -56 -47 -65 -55 -26 -24 -93 -82 -145 -125 -94
-78 -233 -196 -281 -240 -12 -11 -38 -33 -59 -50 -69 -56 -78 -64 -171 -145
-28 -25 -74 -65 -103 -90 -28 -25 -51 -53 -51 -64 0 -16 38 -71 85 -122 5 -6
27 -31 47 -55 20 -24 55 -64 77 -89 22 -25 41 -48 41 -51 0 -4 9 -9 21 -12 16
-4 32 6 64 39 24 24 45 44 48 44 3 0 20 15 39 33 18 18 55 50 82 72 58 47 113
94 135 115 9 8 39 33 66 55 43 35 87 73 144 125 9 8 37 30 61 49 25 19 57 47
72 63 15 15 30 28 33 28 3 0 18 12 33 28 15 15 50 45 77 67 28 22 55 44 61 50
6 5 35 30 64 55 57 49 66 56 136 115 26 22 62 55 80 72 40 38 73 49 96 31 14
-11 115 -128 253 -293 22 -26 61 -71 87 -99 26 -28 48 -60 48 -70 0 -19 -22
-42 -109 -114 -24 -21 -54 -46 -67 -57 -12 -11 -44 -38 -71 -61 -328 -278
-405 -346 -399 -351 10 -10 61 22 132 84 44 37 98 83 120 101 35 30 119 103
180 157 13 11 38 31 55 45 18 14 40 32 48 40 9 9 46 42 84 74 66 58 79 82 55
108 -7 7 -31 36 -53 63 -21 28 -42 52 -45 55 -6 5 -169 193 -220 254 -14 16
-43 50 -65 76 -22 26 -51 60 -64 76 -14 16 -47 56 -75 89 -28 32 -54 64 -58
70 -5 5 -31 36 -60 68 -39 44 -58 57 -80 57 -15 0 -28 -3 -28 -7z m73 -57
c104 -113 109 -121 96 -150 -7 -14 -16 -26 -22 -26 -5 0 -22 -12 -39 -27 -17
-16 -38 -35 -47 -43 -15 -13 -106 -92 -169 -145 -13 -11 -38 -33 -55 -48 -18
-16 -45 -38 -60 -50 -16 -12 -44 -35 -62 -52 -18 -16 -57 -50 -86 -75 -29 -25
-58 -51 -65 -57 -7 -7 -16 -13 -20 -13 -4 0 -22 -15 -39 -32 -41 -41 -130
-118 -161 -138 -12 -9 -34 -28 -48 -43 -14 -15 -28 -27 -31 -27 -3 0 -18 -12
-33 -27 -15 -16 -47 -44 -72 -63 -45 -35 -54 -42 -145 -124 -27 -25 -54 -46
-60 -45 -28 0 -145 131 -145 162 1 14 19 37 53 65 29 23 71 59 94 80 23 20 56
48 74 62 18 14 38 30 44 37 13 12 73 63 150 128 27 22 54 45 60 52 12 12 68
59 146 125 24 20 60 51 79 68 19 18 55 48 80 68 25 20 52 43 61 52 13 13 69
61 139 120 10 8 39 33 65 55 26 22 71 61 99 87 58 54 87 59 119 24z"/>
<path d="M490 2906 c-99 -18 -164 -66 -208 -153 -20 -40 -22 -58 -22 -294 -1
-138 1 -253 4 -256 6 -7 86 70 86 83 0 6 -7 17 -15 24 -10 9 -15 31 -15 74 0
58 4 68 73 187 41 69 77 132 80 140 4 8 16 28 27 44 11 17 24 39 30 50 6 11
19 34 29 50 23 35 26 65 9 64 -7 -1 -42 -7 -78 -13z"/>
<path d="M560 2597 c-8 -12 -23 -37 -33 -56 -10 -19 -25 -41 -33 -48 -8 -8
-14 -20 -14 -27 0 -8 -7 -19 -15 -26 -9 -7 -15 -29 -15 -51 l0 -39 170 0 c94
0 170 3 170 8 0 4 -8 15 -17 23 -10 9 -38 39 -63 69 -25 29 -50 58 -55 64 -6
6 -27 32 -46 58 -35 45 -36 46 -49 25z"/>
<path d="M2479 2613 c-2 -5 -47 -45 -99 -89 -93 -79 -95 -82 -98 -127 -4 -55
7 -59 75 -26 74 36 131 122 145 223 3 19 -17 34 -23 19z"/>
<path d="M2477 2387 c-9 -23 -108 -82 -168 -100 -51 -15 -137 -17 -940 -17
-996 0 -942 4 -1025 -76 -62 -61 -85 -120 -87 -229 -2 -86 -1 -89 23 -102 19
-10 122 -13 443 -13 l417 0 63 -31 c73 -35 91 -50 133 -104 56 -75 69 -118 68
-235 -1 -85 -5 -114 -23 -151 -31 -68 -100 -140 -168 -174 l-58 -30 -454 0
-453 0 4 -130 c3 -107 8 -137 25 -170 41 -77 101 -128 188 -157 45 -15 131
-17 906 -17 850 -1 856 -1 925 21 58 18 78 31 127 80 31 32 57 66 57 76 0 10
6 24 13 30 9 10 13 182 15 777 2 655 0 765 -12 765 -7 0 -16 -6 -19 -13z"/>
<path d="M7200 2187 c42 -22 49 -65 51 -335 1 -240 -8 -332 -33 -332 -4 0 -8
-4 -8 -10 0 -6 41 -10 103 -10 99 1 101 1 76 17 -37 23 -40 48 -39 386 l1 292
-88 3 c-77 2 -85 1 -63 -11z"/>
<path d="M7531 2193 c60 -9 60 -13 62 -342 1 -291 0 -302 -20 -320 -11 -11
-31 -21 -44 -23 -13 -3 36 -7 109 -9 72 -2 132 -1 132 4 0 4 -9 7 -21 7 -14 0
-26 13 -40 45 -18 42 -20 66 -19 342 l2 298 -94 1 c-51 1 -81 -1 -67 -3z"/>
<path d="M3304 2161 c-8 -9 -4 -141 5 -141 10 0 15 13 26 68 8 41 34 52 115
52 94 0 90 12 90 -301 0 -238 -2 -273 -17 -297 -10 -15 -22 -30 -28 -34 -5 -4
36 -8 93 -8 l103 0 -25 23 -26 22 -1 289 c-1 235 1 290 12 298 20 13 156 5
171 -10 7 -7 15 -33 18 -60 3 -33 10 -47 20 -47 12 0 15 15 15 74 l0 75 -283
0 c-156 1 -285 -1 -288 -3z"/>
<path d="M5500 2160 c0 -4 10 -10 23 -14 28 -7 67 -64 67 -99 0 -14 4 -28 9
-31 5 -3 12 -26 15 -51 4 -24 11 -47 15 -50 5 -2 12 -25 15 -50 4 -24 11 -47
17 -50 5 -4 9 -18 9 -33 0 -15 6 -39 14 -54 8 -14 17 -45 21 -67 4 -23 11 -43
16 -47 5 -3 9 -20 9 -37 0 -52 24 -77 74 -77 47 0 56 9 56 58 0 15 7 36 15 46
8 11 15 31 15 45 1 14 7 37 15 51 8 14 14 37 15 52 0 15 4 29 9 32 5 4 12 25
16 49 17 98 75 155 90 87 4 -16 11 -32 16 -35 5 -4 9 -16 9 -28 0 -12 7 -35
15 -51 8 -15 15 -36 15 -45 0 -10 7 -26 15 -37 8 -10 15 -28 15 -39 0 -11 7
-33 15 -49 8 -15 15 -34 15 -42 0 -7 9 -32 21 -54 19 -36 25 -40 59 -40 38 0
39 0 46 46 4 26 13 59 20 73 8 14 14 38 14 53 0 15 4 29 9 33 6 3 13 27 16 53
3 26 10 55 15 64 5 9 13 36 16 59 4 24 13 54 21 68 7 14 13 42 13 61 0 19 7
44 15 54 8 11 15 27 15 36 0 9 17 29 37 43 l37 26 -97 0 c-93 0 -124 -10 -72
-23 13 -3 31 -19 40 -35 13 -26 13 -33 0 -58 -8 -15 -15 -47 -15 -70 0 -23 -4
-44 -9 -48 -6 -3 -13 -27 -16 -53 -3 -26 -13 -62 -21 -80 -7 -18 -14 -52 -14
-75 0 -56 -19 -91 -51 -95 -25 -3 -27 0 -31 50 -3 28 -11 54 -17 56 -6 2 -14
21 -17 43 -4 22 -11 42 -15 45 -5 3 -9 13 -9 22 0 9 -7 30 -15 46 -8 15 -15
38 -15 50 0 12 -7 31 -15 42 -8 10 -15 28 -15 40 0 11 -7 29 -15 40 -8 10 -15
29 -15 41 0 36 -11 53 -35 53 -24 0 -35 -17 -35 -55 0 -12 -7 -36 -15 -51 -8
-16 -15 -39 -15 -50 0 -12 -7 -35 -15 -50 -8 -16 -15 -36 -15 -45 0 -9 -7 -30
-15 -45 -8 -16 -15 -36 -15 -45 0 -9 -7 -33 -15 -52 -8 -20 -15 -49 -15 -65 0
-31 -40 -77 -61 -70 -7 2 -19 36 -26 74 -7 38 -17 88 -22 112 -4 24 -13 48
-19 54 -7 7 -12 26 -12 43 0 16 -7 44 -16 60 -9 17 -18 56 -21 87 -6 57 -6 57
31 79 20 11 36 22 36 24 0 2 -61 3 -135 3 -74 0 -135 -3 -135 -8z"/>
<path d="M8566 2095 c-9 -9 -16 -24 -16 -33 -1 -27 -43 -68 -83 -81 -46 -15
-47 -29 -4 -33 l32 -3 6 -180 c7 -223 13 -244 77 -272 48 -21 80 -21 135 2 21
9 23 27 1 18 -8 -3 -32 3 -53 13 -36 17 -39 23 -45 69 -8 65 -8 319 0 339 5
12 21 16 66 16 51 0 59 2 56 18 -3 13 -14 17 -55 17 -28 0 -55 4 -60 8 -4 5
-8 32 -8 60 0 57 -18 72 -49 42z"/>
<path d="M3990 1970 c24 -15 87 -77 105 -101 6 -8 28 -36 48 -63 29 -39 36
-56 32 -76 -5 -24 -3 -26 22 -23 24 3 34 -5 76 -62 26 -35 47 -73 47 -84 0
-11 -12 -29 -26 -40 l-27 -21 116 0 116 0 -42 43 c-23 23 -64 72 -91 110 -28
37 -53 67 -58 67 -4 0 -8 16 -8 35 0 43 56 124 125 182 25 20 45 41 45 45 0 4
-34 7 -75 5 -41 -1 -75 -3 -75 -4 0 -2 9 -12 20 -23 27 -27 25 -54 -7 -106
-35 -54 -76 -68 -101 -33 -9 12 -23 30 -32 39 -26 26 -33 69 -16 96 9 12 12
25 8 28 -5 3 -57 4 -117 3 -101 -1 -106 -2 -85 -17z"/>
<path d="M4606 1979 c3 -5 11 -9 19 -9 7 0 23 -12 34 -26 19 -25 21 -40 21
-201 0 -173 0 -175 -26 -209 l-26 -34 102 0 103 0 -27 21 -26 20 0 165 c0 134
3 168 15 180 19 19 19 44 1 44 -9 0 -16 12 -18 28 l-3 27 -87 2 c-51 0 -86 -3
-82 -8z"/>
<path d="M4855 1970 c-18 -20 -17 -20 36 -20 47 -1 57 -4 74 -28 18 -24 20
-46 23 -224 l3 -197 85 -3 c46 -2 84 0 84 5 0 4 -9 7 -20 7 -34 0 -42 36 -45
199 -3 247 -21 281 -149 281 -60 0 -76 -3 -91 -20z"/>
<path d="M6674 1968 c-56 -43 -58 -62 -8 -83 53 -22 64 -19 64 14 0 16 7 34
16 41 8 8 20 22 25 32 9 16 5 18 -29 18 -25 0 -50 -8 -68 -22z"/>
<path d="M6874 1955 c25 -32 27 -41 24 -112 l-3 -78 -40 -6 c-28 -4 -32 -7
-13 -8 54 -2 58 -8 58 -83 0 -46 -5 -74 -14 -83 -12 -13 -10 -20 18 -50 30
-32 37 -35 90 -35 l57 0 -26 27 c-25 28 -25 29 -25 212 l0 184 -36 33 c-28 27
-44 34 -76 34 l-40 0 26 -35z"/>
<path d="M7988 1965 c-58 -39 -91 -120 -92 -226 -1 -76 2 -92 28 -144 17 -32
38 -60 48 -63 10 -2 18 -8 18 -13 0 -4 17 -11 38 -15 20 -4 40 -11 43 -16 12
-18 77 -21 110 -4 17 9 39 16 48 16 26 0 61 29 61 50 0 17 -4 16 -44 -10 -34
-23 -55 -30 -94 -30 -32 0 -54 5 -62 15 -7 8 -19 15 -26 15 -8 0 -14 7 -14 15
0 7 -6 18 -13 22 -20 12 -51 143 -37 157 7 7 68 12 163 13 l152 2 3 46 c2 27
-3 58 -12 77 -9 17 -16 37 -16 44 0 7 -16 25 -36 40 -27 21 -49 28 -92 30 -32
2 -48 0 -37 -4 58 -21 95 -80 95 -153 l0 -49 -57 -2 c-84 -3 -147 2 -157 12
-5 5 -4 33 2 67 10 49 18 64 54 95 l43 38 -40 0 c-27 0 -53 -9 -77 -25z"/>
<path d="M250 1506 c0 -283 0 -285 22 -300 19 -14 79 -16 450 -16 409 0 430 1
465 20 55 29 101 76 129 133 35 67 37 207 6 277 -28 61 -96 124 -160 149 -50
20 -72 21 -482 21 l-430 0 0 -284z m855 111 c42 -24 85 -86 85 -125 0 -65 -85
-152 -147 -152 -67 1 -153 85 -153 150 0 14 10 43 23 65 24 43 87 85 127 85
14 0 43 -10 65 -23z"/>
<path d="M985 1545 c-50 -49 -14 -138 54 -138 43 0 84 41 84 82 0 72 -87 107
-138 56z"/>
<path d="M6638 1719 c-36 -30 -38 -34 -38 -91 0 -67 28 -128 59 -128 9 0 22
-5 28 -11 18 -18 81 -15 101 5 9 9 13 16 7 15 -56 -10 -95 38 -95 119 0 28 3
52 8 54 4 2 20 18 36 36 l30 32 -50 0 c-40 -1 -56 -7 -86 -31z"/>
<path d="M4119 1653 c-19 -21 -52 -60 -73 -86 -21 -27 -48 -52 -60 -57 -14 -6
10 -9 69 -8 51 0 79 3 65 7 -39 11 -40 70 -2 119 55 71 55 83 1 25z"/>
</g>
</svg>
