<?xml version="1.0" standalone="no"?>
<!DOCTYPE svg PUBLIC "-//W3C//DTD SVG 20010904//EN"
 "http://www.w3.org/TR/2001/REC-SVG-20010904/DTD/svg10.dtd">
<svg version="1.0" xmlns="http://www.w3.org/2000/svg"
 width="900.000000pt" height="840.000000pt" viewBox="0 0 900.000000 840.000000"
 preserveAspectRatio="xMidYMid meet">
<metadata>
Created by potrace 1.10, written by Peter Selinger 2001-2011
</metadata>
<g transform="translate(0.000000,840.000000) scale(0.100000,-0.100000)"
fill="#000000" stroke="none">
<path d="M4269 7417 c-27 -22 -129 -186 -129 -206 0 -6 -3 -11 -8 -11 -4 0
-19 -21 -32 -47 -14 -26 -29 -53 -35 -59 -5 -6 -19 -28 -30 -50 -11 -21 -22
-41 -25 -44 -12 -12 -47 -68 -65 -105 -11 -22 -23 -42 -27 -45 -4 -3 -12 -17
-17 -30 -13 -29 -31 -59 -48 -78 -7 -7 -13 -19 -13 -27 0 -7 -7 -15 -15 -19
-8 -3 -15 -14 -15 -25 0 -11 -5 -23 -11 -26 -5 -4 -14 -17 -20 -28 -11 -27
-32 -60 -41 -67 -4 -3 -12 -17 -17 -30 -6 -14 -17 -34 -23 -45 -13 -20 -54
-86 -73 -117 -5 -9 -20 -35 -32 -57 -12 -22 -35 -60 -50 -83 -33 -52 -63 -106
-63 -114 0 -8 48 28 90 68 20 18 56 49 80 68 24 19 56 46 70 59 14 13 45 39
70 59 25 20 50 41 55 46 6 6 46 42 90 81 44 38 85 74 91 80 6 5 33 28 59 50
27 22 116 98 199 168 83 71 164 139 180 153 15 13 30 24 32 24 2 0 18 15 36
33 18 17 55 50 82 72 75 61 141 123 136 128 -6 5 -340 206 -360 216 -8 4 -25
13 -37 19 -33 17 -55 15 -84 -11z"/>
<path d="M5150 7324 c-25 -20 -47 -39 -50 -43 -3 -3 -34 -31 -70 -61 -35 -30
-70 -59 -76 -65 -6 -5 -33 -28 -60 -50 -26 -22 -66 -56 -89 -75 -22 -19 -63
-53 -89 -75 -27 -22 -54 -45 -61 -52 -14 -13 -78 -68 -150 -128 -27 -22 -55
-47 -64 -56 -9 -8 -45 -40 -81 -70 -36 -30 -67 -56 -70 -59 -9 -9 -154 -134
-204 -175 -27 -22 -56 -47 -65 -56 -9 -8 -36 -30 -61 -49 -25 -19 -52 -41 -61
-49 -33 -32 -143 -127 -171 -147 -15 -12 -38 -32 -51 -45 -22 -23 -119 -106
-187 -159 -17 -14 -38 -40 -45 -57 -12 -28 -12 -38 0 -67 8 -19 18 -36 22 -38
5 -1 24 -23 43 -48 19 -25 45 -56 58 -70 14 -14 52 -58 86 -99 154 -187 178
-200 252 -133 23 20 63 55 89 77 27 22 62 52 79 67 61 52 264 224 311 263 27
22 54 45 60 52 7 6 34 30 61 53 27 23 74 64 104 90 30 26 76 65 101 86 25 22
67 57 93 79 26 21 58 48 70 60 58 51 86 75 92 75 6 0 29 20 98 85 17 17 52 45
76 64 25 19 57 47 72 63 15 15 31 28 37 28 5 0 11 4 13 8 2 5 73 69 158 142
85 74 161 140 169 148 16 15 60 8 76 -12 14 -18 85 -104 117 -140 14 -17 59
-69 98 -116 99 -116 110 -129 150 -176 19 -23 53 -63 75 -89 22 -27 55 -63 74
-81 38 -38 38 -71 -3 -97 -13 -9 -111 -91 -217 -182 -107 -91 -205 -175 -219
-187 -14 -11 -52 -44 -85 -72 -33 -28 -62 -53 -65 -56 -3 -3 -25 -21 -50 -40
-24 -19 -66 -55 -93 -80 -27 -25 -59 -52 -71 -60 -12 -8 -36 -27 -52 -42 -16
-16 -32 -28 -36 -28 -5 0 -8 -5 -8 -11 0 -8 15 -10 44 -7 43 5 70 24 182 123
23 20 120 103 200 170 43 36 154 131 228 195 15 14 38 34 50 45 12 11 44 38
71 60 27 22 56 47 65 55 9 8 37 32 62 53 26 21 57 51 69 68 20 28 21 34 9 70
-8 22 -18 43 -25 47 -6 4 -35 36 -65 72 -30 35 -59 70 -65 76 -5 6 -28 33 -50
58 -21 26 -48 57 -60 70 -11 12 -38 44 -60 71 -22 26 -49 58 -60 71 -50 55
-133 152 -180 208 -22 27 -49 58 -60 70 -11 12 -38 44 -60 71 -22 26 -52 62
-66 79 -15 17 -46 54 -69 81 -23 28 -69 80 -102 118 -57 62 -63 67 -102 66
-31 0 -52 -8 -86 -35z m104 -24 c14 -5 26 -14 26 -20 0 -6 12 -23 28 -38 15
-15 45 -50 67 -77 22 -28 43 -51 47 -53 15 -7 8 -42 -12 -62 -11 -11 -22 -20
-25 -20 -2 0 -26 -20 -52 -45 -26 -24 -51 -45 -55 -45 -4 0 -24 -16 -45 -35
-57 -53 -81 -75 -153 -135 -36 -30 -67 -57 -70 -60 -6 -6 -161 -139 -200 -172
-69 -58 -178 -151 -203 -173 -15 -14 -32 -25 -37 -25 -6 0 -10 -3 -10 -7 0 -5
-28 -30 -62 -58 -33 -27 -82 -69 -107 -92 -25 -23 -84 -74 -131 -114 -47 -39
-87 -75 -90 -78 -3 -4 -33 -30 -67 -58 -91 -75 -92 -76 -122 -103 -15 -14 -72
-61 -127 -105 -54 -44 -110 -92 -124 -107 -13 -16 -29 -28 -35 -28 -11 1 -55
35 -55 44 0 3 -15 21 -32 40 -53 55 -87 96 -105 127 -20 33 -21 31 72 105 49
38 85 69 129 109 12 11 44 38 71 60 26 22 58 49 70 60 13 11 46 40 75 65 58
50 67 57 136 115 26 22 81 69 123 105 42 36 89 77 105 90 16 14 37 32 46 40 9
8 43 37 75 65 33 27 71 59 85 71 35 31 121 104 156 133 16 14 61 52 99 85 39
34 93 79 119 101 27 22 54 45 61 52 13 12 69 60 149 127 26 22 68 59 94 83 52
47 51 47 86 33z"/>
<path d="M3180 6160 c-133 -23 -207 -65 -275 -155 -46 -62 -56 -83 -76 -165
-16 -65 -19 -117 -19 -391 0 -174 2 -318 5 -321 3 -3 38 26 77 65 58 58 69 73
60 86 -6 9 -20 34 -30 56 -18 38 -18 44 -3 120 9 44 27 98 40 120 14 22 31 50
38 63 6 12 48 83 93 156 44 74 80 136 80 140 0 3 12 22 26 43 14 21 30 47 35
58 5 11 18 34 29 50 55 84 43 96 -80 75z"/>
<path d="M3250 5728 c-12 -24 -30 -56 -41 -73 -10 -16 -22 -38 -25 -47 -4 -10
-10 -18 -14 -18 -5 0 -13 -12 -19 -27 -14 -33 -32 -65 -49 -86 -8 -9 -12 -35
-10 -63 l3 -48 254 -3 c281 -3 267 -7 199 59 -15 15 -28 29 -28 32 0 3 -8 14
-17 24 -10 10 -36 40 -58 66 -53 65 -96 115 -116 137 -9 9 -22 33 -29 53 -6
20 -15 36 -20 36 -4 0 -18 -19 -30 -42z"/>
<path d="M5850 5623 c-80 -69 -148 -133 -151 -142 -3 -9 -3 -40 -1 -68 4 -51
5 -53 33 -53 68 0 196 103 236 190 40 87 60 189 38 196 -5 1 -75 -54 -155
-123z"/>
<path d="M5974 5282 c-76 -69 -92 -80 -181 -114 l-58 -23 -1280 -6 c-845 -3
-1294 -9 -1320 -16 -76 -20 -119 -45 -176 -103 -69 -71 -105 -143 -124 -252
-22 -122 -20 -170 8 -196 22 -21 28 -21 607 -25 636 -4 647 -5 763 -62 93 -46
185 -150 225 -255 8 -19 20 -71 28 -115 51 -278 -125 -543 -391 -591 -102 -19
-1048 -19 -1162 0 -45 7 -85 11 -88 8 -3 -3 -5 -62 -5 -131 0 -140 17 -244 50
-310 37 -74 115 -148 200 -189 l75 -37 1285 0 1285 0 75 37 c85 41 163 116
200 189 50 101 49 83 50 1197 0 573 -3 1042 -7 1042 -5 0 -31 -22 -59 -48z"/>
<path d="M2824 4461 c-2 -2 -4 -183 -4 -401 l0 -397 23 -20 c50 -45 88 -48
657 -48 568 0 582 1 677 50 54 27 128 101 157 157 114 217 47 488 -149 602
-90 53 -132 56 -768 59 -324 1 -591 0 -593 -2z m1174 -233 c122 -30 192 -157
146 -266 -33 -80 -110 -132 -195 -132 -86 0 -162 60 -191 151 -15 45 -15 54
-1 105 20 67 82 128 146 143 23 5 43 9 45 10 2 1 24 -4 50 -11z"/>
<path d="M3888 4132 c-36 -22 -62 -81 -53 -121 4 -17 20 -45 37 -61 25 -26 37
-30 83 -30 48 0 56 3 84 35 71 81 16 197 -91 194 -18 0 -45 -8 -60 -17z"/>
<path d="M6084 1748 c-5 -7 9 -14 72 -38 38 -14 44 -84 43 -473 -1 -429 -1
-431 -77 -467 -28 -14 -50 -29 -49 -35 2 -6 81 -10 208 -10 175 0 204 2 204
15 0 9 -11 16 -26 18 -14 2 -41 16 -60 31 l-34 29 -2 463 c-2 366 -5 464 -15
466 -45 7 -260 8 -264 1z"/>
<path d="M6580 1748 c0 -9 13 -18 29 -21 16 -4 41 -19 55 -34 l26 -28 0 -417
0 -417 -36 -35 c-20 -19 -46 -36 -57 -38 -12 -2 -22 -10 -22 -18 0 -13 29 -15
190 -18 104 -1 195 0 202 2 16 6 6 36 -12 36 -28 0 -74 36 -89 70 -14 32 -16
95 -16 478 l0 442 -104 0 c-57 0 -118 3 -135 6 -24 5 -31 3 -31 -8z"/>
<path d="M3714 1689 c-2 -4 11 -12 29 -19 43 -17 67 -39 67 -60 0 -10 7 -23
15 -30 9 -7 15 -29 15 -51 0 -20 6 -44 14 -51 7 -8 17 -33 21 -56 4 -23 11
-44 16 -48 5 -3 9 -20 9 -38 0 -18 7 -41 15 -52 8 -10 15 -30 15 -44 0 -14 7
-38 15 -54 8 -15 15 -38 15 -50 0 -11 7 -34 15 -50 8 -15 15 -38 15 -50 0 -11
7 -34 15 -50 8 -15 15 -38 15 -50 0 -11 7 -34 15 -50 8 -15 15 -38 15 -50 0
-11 7 -34 15 -50 8 -15 15 -37 15 -47 0 -17 8 -19 65 -19 l65 0 15 36 c8 20
15 48 15 63 0 15 4 31 9 36 6 6 13 26 16 45 3 19 13 42 21 51 7 8 14 29 14 45
1 16 7 40 15 54 8 14 15 39 15 55 0 17 7 39 15 49 8 11 15 31 15 45 0 14 7 35
15 45 8 11 15 34 15 52 0 17 7 37 15 44 8 7 15 19 15 26 0 8 10 14 25 14 17 0
25 -6 25 -17 0 -10 7 -31 15 -47 8 -15 15 -36 15 -45 0 -10 7 -26 15 -37 8
-10 15 -28 15 -39 0 -11 7 -33 15 -49 8 -15 15 -36 15 -45 0 -10 7 -26 15 -37
8 -10 15 -31 15 -45 0 -15 7 -32 15 -39 8 -7 15 -25 15 -39 0 -15 7 -36 15
-47 8 -10 15 -28 15 -39 0 -11 6 -30 14 -41 8 -11 16 -36 18 -55 l3 -34 64 0
64 0 14 55 c19 73 42 155 59 210 8 25 14 55 14 66 0 12 7 38 15 57 8 20 15 47
15 61 0 13 7 37 15 52 8 16 15 41 15 55 0 15 7 40 15 55 8 16 15 41 15 55 0
15 7 40 15 55 8 16 15 41 15 55 0 15 7 40 15 55 8 16 15 36 15 45 0 21 31 48
72 62 69 24 40 32 -117 33 -85 0 -155 -3 -155 -8 0 -4 17 -12 38 -18 76 -21
89 -47 72 -144 -7 -39 -18 -88 -26 -109 -8 -20 -14 -48 -14 -61 0 -13 -7 -40
-15 -59 -8 -20 -15 -50 -15 -67 0 -17 -5 -41 -11 -52 -6 -11 -15 -44 -20 -72
-19 -117 -36 -171 -52 -174 -19 -4 -57 52 -57 82 0 24 -40 147 -52 160 -4 6
-8 19 -8 30 0 12 -7 34 -15 50 -8 15 -15 36 -15 45 0 10 -7 26 -15 37 -8 10
-15 26 -15 34 0 8 -7 28 -15 43 -8 15 -17 43 -21 63 -3 19 -10 37 -15 40 -5 3
-9 14 -9 25 0 11 -6 30 -12 42 -7 12 -18 40 -23 62 -10 38 -13 40 -50 40 -35
0 -40 -3 -43 -25 -2 -14 -10 -39 -18 -57 -8 -17 -14 -40 -14 -51 0 -11 -7 -33
-15 -48 -8 -16 -15 -39 -15 -50 0 -12 -7 -35 -15 -50 -8 -16 -15 -36 -15 -45
0 -9 -7 -30 -15 -45 -8 -16 -15 -40 -15 -54 -1 -14 -7 -36 -15 -50 -8 -14 -14
-37 -15 -52 0 -15 -4 -29 -9 -32 -5 -4 -12 -29 -16 -57 -4 -28 -13 -63 -21
-77 -8 -15 -14 -33 -14 -39 0 -7 -9 -13 -19 -13 -24 0 -61 73 -61 121 0 19 -7
47 -15 63 -8 15 -15 39 -15 52 0 13 -6 38 -14 56 -13 32 -28 84 -45 158 -5 19
-13 46 -18 60 -25 60 -35 129 -23 164 10 32 21 40 83 60 48 15 -1 21 -184 21
-110 0 -203 -3 -205 -6z"/>
<path d="M597 1603 c-4 -49 -8 -97 -9 -108 -2 -15 4 -21 25 -23 26 -3 27 -2
27 43 0 45 16 83 52 118 15 15 35 18 120 18 72 0 104 -4 109 -13 5 -7 9 -185
9 -395 0 -343 -2 -386 -17 -420 -22 -46 -36 -57 -88 -63 -28 -3 -41 -10 -43
-23 -3 -16 11 -17 225 -15 195 3 228 5 228 18 0 10 -14 17 -45 20 -56 7 -66
13 -85 53 -13 28 -15 90 -13 432 l3 400 100 3 c66 2 108 -1 123 -10 28 -15 60
-78 64 -128 2 -27 7 -35 23 -35 14 0 20 6 19 23 0 12 -1 60 -2 107 l-2 85
-409 0 -408 0 -6 -87z"/>
<path d="M8074 1603 c-26 -80 -74 -136 -147 -170 -66 -32 -59 -53 18 -53 l34
0 3 -270 c2 -198 6 -272 16 -282 6 -6 12 -20 12 -29 0 -9 16 -31 37 -48 36
-31 38 -31 144 -31 99 0 110 2 135 23 38 33 24 47 -49 47 -119 1 -136 47 -137
362 0 163 3 219 13 225 6 4 44 8 82 9 97 2 95 1 95 29 0 28 1 28 -92 29 -40 1
-72 6 -80 14 -7 7 -15 45 -18 85 -5 70 -6 72 -33 75 -19 2 -29 -2 -33 -15z"/>
<path d="M2883 1456 c-39 -8 -63 -21 -95 -53 -24 -24 -51 -43 -59 -43 -8 0
-21 18 -30 43 l-16 42 -124 0 c-104 0 -124 -2 -124 -15 0 -10 12 -16 32 -18
23 -2 40 -13 58 -36 l25 -33 0 -246 c0 -215 -2 -249 -17 -276 -10 -17 -26 -34
-35 -37 -10 -3 -18 -9 -18 -14 0 -5 -10 -10 -22 -12 -13 -2 -24 -11 -26 -20
-3 -17 11 -18 191 -18 106 0 196 3 200 6 9 10 -4 34 -19 34 -18 0 -64 29 -81
50 -19 24 -17 439 2 464 8 11 15 27 15 36 0 9 13 29 30 45 25 24 38 28 89 29
51 1 63 -3 83 -24 45 -48 52 -97 55 -375 l2 -260 127 0 c93 0 128 3 131 12 3
7 -7 17 -22 23 -14 5 -37 22 -50 36 l-25 27 0 227 c0 185 -3 237 -17 279 -20
64 -69 114 -120 123 -21 4 -49 9 -63 11 -14 3 -48 0 -77 -7z"/>
<path d="M5547 1464 c-4 -4 -38 -11 -74 -15 -37 -4 -69 -12 -71 -18 -2 -6 -9
-11 -16 -11 -42 0 -67 -114 -28 -126 9 -3 25 -10 34 -15 10 -5 31 -9 48 -9 24
0 30 4 30 20 0 25 33 91 52 108 15 12 52 17 104 14 21 -1 37 -11 52 -32 20
-27 23 -42 23 -137 0 -76 -4 -108 -13 -114 -7 -5 -67 -9 -133 -9 -87 0 -128
-4 -149 -15 -15 -8 -34 -15 -40 -15 -7 0 -29 -16 -49 -37 l-37 -36 0 -98 0
-98 50 -51 51 -50 87 0 87 0 48 41 c26 22 47 46 47 52 0 7 -7 4 -14 -5 -15
-20 -91 -34 -130 -24 -36 9 -66 71 -66 139 0 116 64 175 192 176 31 1 60 -4
63 -10 4 -5 6 -53 6 -106 -1 -71 -5 -101 -16 -113 -21 -23 -19 -50 4 -50 25 0
39 -19 43 -60 l3 -35 109 -3 c60 -1 113 1 119 7 5 5 -5 18 -27 34 -71 48 -76
70 -76 342 0 213 -2 243 -18 267 -26 40 -84 75 -133 81 -128 17 -155 18 -162
11z"/>
<path d="M7390 1460 c-8 -5 -31 -10 -51 -10 -20 0 -42 -7 -49 -15 -7 -8 -19
-15 -28 -15 -33 0 -122 -120 -122 -165 0 -9 -7 -39 -16 -66 -19 -56 -16 -201
4 -221 7 -7 12 -22 12 -35 0 -55 106 -183 151 -183 9 0 22 -7 29 -15 18 -21
247 -22 276 0 10 8 27 15 36 15 23 0 78 69 78 97 0 25 -25 31 -33 8 -4 -8 -25
-26 -48 -41 -45 -28 -130 -42 -191 -30 -39 7 -97 58 -119 106 -21 45 -42 160
-34 183 10 25 28 27 255 30 l205 2 -3 55 c-13 200 -93 283 -297 306 -22 3 -47
0 -55 -6z m136 -86 c29 -34 33 -44 39 -126 4 -49 5 -92 2 -95 -9 -8 -175 -13
-230 -6 l-49 6 7 80 c4 47 13 87 21 95 8 7 14 19 14 25 0 6 12 21 28 34 20 17
40 22 81 23 50 0 57 -3 87 -36z"/>
<path d="M1535 1439 c-10 -15 4 -29 28 -29 33 0 73 -31 117 -90 22 -30 44 -56
48 -59 27 -20 112 -145 112 -164 0 -24 -16 -50 -74 -118 -34 -39 -52 -60 -110
-132 -40 -49 -82 -78 -126 -87 -14 -3 -26 -13 -28 -23 -3 -16 8 -17 154 -15
115 2 158 6 161 15 3 7 -8 18 -24 24 -62 23 -86 66 -62 111 21 40 121 163 138
169 19 8 51 -7 51 -24 0 -7 11 -22 24 -35 39 -37 96 -128 96 -154 0 -25 -37
-59 -78 -72 -13 -4 -21 -13 -19 -19 6 -18 399 -17 404 0 3 7 -6 17 -19 23 -47
20 -98 62 -98 80 0 6 -4 10 -8 10 -5 0 -30 30 -57 66 -26 36 -56 74 -65 83
-80 80 -100 144 -56 184 13 12 40 45 61 72 21 28 51 63 67 79 15 17 28 33 28
38 0 4 6 8 14 8 8 0 16 6 19 14 3 8 22 16 44 18 26 2 38 8 38 18 0 12 -22 15
-125 17 -130 3 -170 -1 -170 -17 0 -5 18 -14 40 -20 31 -8 40 -16 41 -33 2
-41 -3 -70 -14 -83 -7 -7 -28 -35 -47 -63 -44 -64 -67 -66 -112 -9 -18 23 -45
56 -60 72 -46 51 -30 109 32 118 14 2 26 11 28 21 3 16 -11 17 -192 17 -112
-1 -198 -5 -201 -11z"/>
</g>
</svg>
